<svg xmlns="http://www.w3.org/2000/svg" width="24" height="24" viewBox="0 0 24 24">
    <g fill="none" fill-rule="evenodd">
        <path fill="#0063B1" d="M3.706 19A.708.708 0 0 1 3 18.301V6.7A.7.7 0 0 1 3.706 6h16.588c.39 0 .706.321.706.699V18.3a.7.7 0 0 1-.706.699H3.706zm.794-7h3a.5.5 0 0 0 0-1h-3a.5.5 0 0 0 0 1zm12 .09h3c.276 0 .5-.244.5-.545 0-.301-.224-.545-.5-.545h-3c-.276 0-.5.244-.5.545 0 .301.224.545.5.545zM10 11h4v1h-4v-1zm-.5-1a.5.5 0 0 0-.5.5v2a.5.5 0 0 0 .5.5h5a.5.5 0 0 0 .5-.5v-2a.5.5 0 0 0-.5-.5h-5z"/>
        <path stroke="#0063B1" stroke-linecap="square" d="M9.5 6.5V5.2c0-.387.313-.7.695-.7h3.61c.384 0 .695.313.695.7v1.3"/>
    </g>
</svg>
