<svg xmlns="http://www.w3.org/2000/svg" width="20" height="20" viewBox="0 0 20 20">
    <g fill="none" fill-rule="evenodd">
        <rect width="20" height="20" fill="#3C3C3C" rx="10"/>
        <path fill="#FFF" d="M14.033 14.489a.67.67 0 1 1 .002-1.342.67.67 0 0 1-.002 1.342zm-1.4-7.762a.812.812 0 0 0-.811.81l-.185 3.933c-.014 1.108-.751 1.911-1.751 1.911-1 0-1.738-.8-1.752-1.906l-.186-3.937a.81.81 0 1 0-1.621 0v6.388a.564.564 0 0 1-1.127 0V7.538A1.94 1.94 0 0 1 7.137 5.6c1.06 0 1.929.863 1.938 1.923l.184 3.922c0 .45.167.81.627.81.458 0 .625-.362.625-.811l.185-3.921A1.943 1.943 0 0 1 12.634 5.6a1.94 1.94 0 0 1 1.936 1.938v4.211a.564.564 0 0 1-1.126 0V7.538a.812.812 0 0 0-.81-.811z"/>
    </g>
</svg>
