<svg xmlns="http://www.w3.org/2000/svg" width="22" height="22" viewBox="0 0 22 22">
    <path fill="#9AD93A" fill-rule="evenodd" d="M11 1c5.523 0 10 4.477 10 10s-4.477 10-10 10S1 16.523 1 11 5.477 1 11 1zm2.281 13.079c1.04 0 1.792-.722 1.792-1.72 0-1.02-.795-1.86-1.772-1.87l-4.426-.307c-.593 0-.971-.317-.971-.825 0-.49.334-.672.745-.672h5.353a.524.524 0 0 0 0-1.047H11.43v-.601a.465.465 0 1 0-.93 0v.6H8.65c-1.041 0-1.793.723-1.793 1.72 0 1.076.838 1.863 2 1.872l4.424.306c.413 0 .746.371.746.825 0 .49-.335.672-.746.672H7.765a.525.525 0 0 0 0 1.047h5.516zm-2.241 1.858a.612.612 0 1 0-.003-1.224.612.612 0 0 0 .003 1.224z"/>
</svg>
