<svg xmlns="http://www.w3.org/2000/svg" width="24" height="24" viewBox="0 0 24 24">
    <path fill="#FFF" fill-rule="evenodd" d="M8.5 5.333V4.4C8.5 3.628 9.125 3 9.894 3h4.212c.77 0 1.394.627 1.394 1.4v.933h6.301a.7.7 0 0 1 .699.691V19.81a.695.695 0 0 1-.699.691H2.2a.7.7 0 0 1-.699-.691V6.024c0-.381.313-.69.699-.69H8.5zm1.167 0h4.666V4.4a.23.23 0 0 0-.227-.232H9.894a.231.231 0 0 0-.227.232v.934zm-6.417 7h3.5a.583.583 0 0 0 0-1.166h-3.5a.583.583 0 0 0 0 1.166zm14 .105h3.5c.322 0 .583-.284.583-.635 0-.352-.26-.636-.583-.636h-3.5c-.322 0-.583.284-.583.636 0 .35.26.635.583.635zm-7.583-1.271h4.666v1.166H9.667v-1.166zM9.083 10a.583.583 0 0 0-.583.583v2.334c0 .322.261.583.583.583h5.834a.583.583 0 0 0 .583-.583v-2.334a.583.583 0 0 0-.583-.583H9.083z"/>
</svg>
